# Blender 3.4.1
# www.blender.org
mtllib Tower.mtl
o Cylinder
v 0.000000 0.000000 -1.000000
v 0.000000 2.000000 -1.000000
v 0.382683 0.000000 -0.923880
v 0.382683 2.000000 -0.923880
v 0.707107 0.000000 -0.707107
v 0.707107 2.000000 -0.707107
v 0.923880 0.000000 -0.382683
v 0.923880 2.000000 -0.382683
v 1.000000 0.000000 0.000000
v 1.000000 2.000000 0.000000
v 0.923880 0.000000 0.382683
v 0.923880 2.000000 0.382683
v 0.707107 0.000000 0.707107
v 0.707107 2.000000 0.707107
v 0.382683 0.000000 0.923880
v 0.382683 2.000000 0.923880
v 0.000000 0.000000 1.000000
v 0.000000 2.000000 1.000000
v -0.382683 0.000000 0.923880
v -0.382683 2.000000 0.923880
v -0.707107 0.000000 0.707107
v -0.707107 2.000000 0.707107
v -0.923880 0.000000 0.382683
v -0.923880 2.000000 0.382683
v -1.000000 0.000000 0.000000
v -1.000000 2.000000 0.000000
v -0.923880 0.000000 -0.382683
v -0.923880 2.000000 -0.382683
v -0.707107 0.000000 -0.707107
v -0.707107 2.000000 -0.707107
v -0.382683 0.000000 -0.923880
v -0.382683 2.000000 -0.923880
vn 0.1951 -0.0000 -0.9808
vn 0.5556 -0.0000 -0.8315
vn 0.8315 -0.0000 -0.5556
vn 0.9808 -0.0000 -0.1951
vn 0.9808 -0.0000 0.1951
vn 0.8315 -0.0000 0.5556
vn 0.5556 -0.0000 0.8315
vn 0.1951 -0.0000 0.9808
vn -0.1951 -0.0000 0.9808
vn -0.5556 -0.0000 0.8315
vn -0.8315 -0.0000 0.5556
vn -0.9808 -0.0000 0.1951
vn -0.9808 -0.0000 -0.1951
vn -0.8315 -0.0000 -0.5556
vn -0.0000 1.0000 -0.0000
vn -0.5556 -0.0000 -0.8315
vn -0.1951 -0.0000 -0.9808
vt 0.500000 0.000000
vt 0.000000 0.000000
vt 0.500000 1.000000
vt 0.750000 0.980000
vt 0.000000 1.000000
vt 0.437500 0.000000
vt 0.437500 1.000000
vt 0.841844 0.943462
vt 0.375000 0.000000
vt 0.375000 1.000000
vt 0.919706 0.839411
vt 0.312500 0.000000
vt 0.312500 1.000000
vt 0.971731 0.683688
vt 0.250000 0.000000
vt 0.250000 1.000000
vt 0.990000 0.500000
vt 0.187500 0.000000
vt 0.187500 1.000000
vt 0.971731 0.316312
vt 0.125000 0.000000
vt 0.125000 1.000000
vt 0.919706 0.160589
vt 0.062500 0.000000
vt 0.062500 1.000000
vt 0.841844 0.056538
vt 0.500000 0.000000
vt 0.000000 0.000000
vt 0.000000 1.000000
vt 0.500000 1.000000
vt 0.750000 0.020000
vt 0.437500 0.000000
vt 0.437500 1.000000
vt 0.658156 0.056538
vt 0.375000 0.000000
vt 0.375000 1.000000
vt 0.580294 0.160589
vt 0.312500 0.000000
vt 0.312500 1.000000
vt 0.528269 0.316312
vt 0.250000 0.000000
vt 0.250000 1.000000
vt 0.510000 0.500000
vt 0.187500 0.000000
vt 0.187500 1.000000
vt 0.528269 0.683688
vt 0.125000 0.000000
vt 0.580294 0.839411
vt 0.125000 1.000000
vt 0.062500 0.000000
vt 0.658156 0.943462
vt 0.062500 1.000000
s 0
usemtl Material.001
f 2/3/1 3/6/1 1/1/1
f 4/7/2 5/9/2 3/6/2
f 6/10/3 7/12/3 5/9/3
f 8/13/4 9/15/4 7/12/4
f 10/16/5 11/18/5 9/15/5
f 12/19/6 13/21/6 11/18/6
f 14/22/7 15/24/7 13/21/7
f 16/25/8 17/28/8 15/24/8
f 18/30/9 19/32/9 17/27/9
f 20/33/10 21/35/10 19/32/10
f 22/36/11 23/38/11 21/35/11
f 24/39/12 25/41/12 23/38/12
f 26/42/13 27/44/13 25/41/13
f 28/45/14 29/47/14 27/44/14
f 22/37/15 14/23/15 6/11/15
f 30/49/16 31/50/16 29/47/16
f 32/52/17 1/2/17 31/50/17
f 2/3/1 4/7/1 3/6/1
f 4/7/2 6/10/2 5/9/2
f 6/10/3 8/13/3 7/12/3
f 8/13/4 10/16/4 9/15/4
f 10/16/5 12/19/5 11/18/5
f 12/19/6 14/22/6 13/21/6
f 14/22/7 16/25/7 15/24/7
f 16/25/8 18/29/8 17/28/8
f 18/30/9 20/33/9 19/32/9
f 20/33/10 22/36/10 21/35/10
f 22/36/11 24/39/11 23/38/11
f 24/39/12 26/42/12 25/41/12
f 26/42/13 28/45/13 27/44/13
f 28/45/14 30/49/14 29/47/14
f 6/11/15 4/8/15 2/4/15
f 2/4/15 32/51/15 30/48/15
f 30/48/15 28/46/15 26/43/15
f 26/43/15 24/40/15 22/37/15
f 22/37/15 20/34/15 18/31/15
f 18/31/15 16/26/15 14/23/15
f 14/23/15 12/20/15 10/17/15
f 10/17/15 8/14/15 6/11/15
f 6/11/15 2/4/15 30/48/15
f 30/48/15 26/43/15 22/37/15
f 22/37/15 18/31/15 14/23/15
f 14/23/15 10/17/15 6/11/15
f 6/11/15 30/48/15 22/37/15
f 30/49/16 32/52/16 31/50/16
f 32/52/17 2/5/17 1/2/17
